<svg width="35" height="35" viewBox="0 0 35 35" fill="none" xmlns="http://www.w3.org/2000/svg">
<g clip-path="url(#clip0_262_647)">
<path d="M23.9529 3.82812C19.7666 3.82812 16.3623 7.23242 16.3623 11.4188C16.3623 11.6703 16.4252 11.9164 16.4498 12.1625C11.2736 11.6676 6.69626 9.17383 3.58728 5.35938C3.44236 5.17617 3.21814 5.07774 2.98298 5.09414C2.75056 5.11055 2.54274 5.24453 2.4279 5.44688C1.77439 6.5707 1.39978 7.86407 1.39978 9.25313C1.39978 10.9348 2.00134 12.4742 2.93103 13.7375C2.75056 13.6582 2.55368 13.6145 2.38415 13.5188C2.16814 13.4039 1.90837 13.4094 1.69782 13.5352C1.48728 13.6609 1.35876 13.8879 1.35603 14.1313V14.2188C1.35603 16.7973 2.6904 19.0367 4.65915 20.4094C4.63728 20.4066 4.6154 20.4148 4.59353 20.4094C4.3529 20.3684 4.10954 20.4531 3.94822 20.6363C3.78689 20.8195 3.73493 21.0738 3.80603 21.3063C4.58807 23.7371 6.58416 25.5938 9.05603 26.2719C7.08728 27.4422 4.80408 28.1313 2.34041 28.1313C1.8072 28.1313 1.29588 28.1039 0.787283 28.0438C0.459158 28 0.144704 28.1914 0.0353294 28.5031C-0.0767826 28.8148 0.0462704 29.1621 0.327908 29.3344C3.48611 31.3605 7.23494 32.55 11.2654 32.55C17.7978 32.55 22.9221 29.8211 26.3592 25.9219C29.7963 22.0227 31.5873 16.9586 31.5873 12.2281C31.5873 12.0285 31.5709 11.8344 31.5654 11.6375C32.8478 10.6559 33.9935 9.50469 34.8904 8.15938C35.0682 7.89961 35.049 7.55234 34.8439 7.31172C34.6416 7.07109 34.2998 6.99726 34.0154 7.13125C33.6545 7.29258 33.2334 7.30899 32.856 7.4375C33.3537 6.77305 33.7803 6.05664 34.0373 5.25C34.1248 4.97383 34.0291 4.67032 33.8021 4.48984C33.5752 4.31211 33.258 4.29023 33.0092 4.44063C31.8142 5.14883 30.4908 5.64649 29.0935 5.95C27.7373 4.68125 25.9517 3.82812 23.9529 3.82812ZM23.9529 5.22813C25.7385 5.22813 27.3517 5.99101 28.481 7.19688C28.6506 7.37188 28.8994 7.4457 29.1373 7.39375C30.0506 7.21328 30.9174 6.94805 31.7623 6.60625C31.2756 7.2625 30.674 7.82305 29.9685 8.24688C29.6486 8.40274 29.4982 8.77187 29.6158 9.1082C29.7306 9.4418 30.0806 9.63594 30.4279 9.55938C31.1279 9.47461 31.7513 9.19024 32.4185 9.0125C31.8197 9.66055 31.1635 10.2457 30.4498 10.7625C30.2556 10.9047 30.149 11.1344 30.1654 11.375C30.1763 11.6594 30.1873 11.941 30.1873 12.2281C30.1873 16.6031 28.5084 21.3527 25.3092 24.9813C22.1099 28.6098 17.4123 31.15 11.2654 31.15C8.47361 31.15 5.83767 30.532 3.45603 29.4438C6.40915 29.2168 9.13259 28.1723 11.331 26.4469C11.5607 26.2637 11.6509 25.9574 11.558 25.6785C11.465 25.3996 11.208 25.2082 10.9154 25.2C8.60759 25.159 6.67439 23.8164 5.64353 21.9188C5.68181 21.9188 5.71462 21.9188 5.7529 21.9188C6.4447 21.9188 7.12829 21.8313 7.7654 21.6563C8.07165 21.566 8.2822 21.2816 8.27127 20.9617C8.26033 20.6418 8.03338 20.3684 7.72165 20.3C5.23064 19.7969 3.36306 17.768 2.93103 15.2469C3.63649 15.4902 4.35837 15.6816 5.1404 15.7063C5.46032 15.7254 5.75016 15.5258 5.84861 15.2223C5.94705 14.9188 5.82673 14.5852 5.55603 14.4156C3.89353 13.3027 2.79978 11.4078 2.79978 9.25313C2.79978 8.45469 3.00759 7.72188 3.28103 7.02188C6.78103 10.8637 11.681 13.4148 17.2154 13.6938C17.4342 13.7047 17.6474 13.6145 17.7896 13.4477C17.9318 13.2781 17.9865 13.0539 17.9373 12.8406C17.8306 12.3867 17.7623 11.9055 17.7623 11.4188C17.7623 7.98984 20.524 5.22813 23.9529 5.22813Z" fill="#F26B6B"/>
</g>
<defs>
<clipPath id="clip0_262_647">
<rect width="35" height="35" fill="white"/>
</clipPath>
</defs>
</svg>
