<svg width="34" height="34" viewBox="0 0 34 34" fill="none" xmlns="http://www.w3.org/2000/svg">
<g clip-path="url(#clip0_262_703)">
<path d="M8.49398 25.4641C7.74569 24.7122 7.32677 23.6937 7.32939 22.6328C7.332 21.572 7.75594 20.5556 8.50793 19.8073L11.3433 16.9859L8.52187 14.1505C7.77358 13.3985 7.35466 12.38 7.35728 11.3192C7.35989 10.2583 7.78383 9.24193 8.53582 8.49363C9.28781 7.74534 10.3063 7.32642 11.3671 7.32904C12.428 7.33165 13.4444 7.75559 14.1927 8.50758L17.0141 11.343L19.8495 8.52152C20.6015 7.77323 21.6199 7.35431 22.6808 7.35693C23.7417 7.35954 24.758 7.78348 25.5063 8.53547C26.2546 9.28746 26.6735 10.3059 26.6709 11.3668C26.6683 12.4276 26.2444 13.444 25.4924 14.1923L22.657 17.0138L25.4784 19.8491C26.2267 20.6011 26.6457 21.6196 26.643 22.6804C26.6404 23.7413 26.2165 24.7577 25.4645 25.506C24.7125 26.2543 23.6941 26.6732 22.6332 26.6706C21.5723 26.668 20.556 26.244 19.8077 25.492L16.9862 22.6566L14.1508 25.4781C13.3988 26.2264 12.3804 26.6453 11.3195 26.6427C10.2587 26.6401 9.24228 26.2161 8.49398 25.4641ZM12.775 9.9183C12.4008 9.54231 11.8926 9.33034 11.3622 9.32903C10.8318 9.32772 10.3225 9.53718 9.94654 9.91133C9.57055 10.2855 9.35858 10.7937 9.35727 11.3241C9.35596 11.8545 9.56542 12.3638 9.93957 12.7397L13.4664 16.284C13.6535 16.472 13.7582 16.7266 13.7575 16.9918C13.7569 17.257 13.6509 17.5111 13.4629 17.6982L9.91865 21.225C9.54266 21.5992 9.33069 22.1073 9.32938 22.6378C9.32807 23.1682 9.53753 23.6774 9.91168 24.0534C10.2858 24.4294 10.794 24.6414 11.3244 24.6427C11.8549 24.644 12.3641 24.4345 12.7401 24.0604L16.2843 20.5336C16.4723 20.3465 16.7269 20.2418 16.9922 20.2424C17.2574 20.2431 17.5115 20.3491 17.6985 20.5371L21.2254 24.0813C21.5995 24.4573 22.1077 24.6693 22.6381 24.6706C23.1685 24.6719 23.6778 24.4624 24.0538 24.0883C24.4298 23.7141 24.6417 23.206 24.643 22.6755C24.6443 22.1451 24.4349 21.6359 24.0607 21.2599L20.5339 17.7156C20.3469 17.5276 20.2421 17.273 20.2428 17.0078C20.2434 16.7426 20.3494 16.4885 20.5374 16.3014L24.0817 12.7746C24.4577 12.4005 24.6696 11.8923 24.6709 11.3618C24.6722 10.8314 24.4628 10.3222 24.0886 9.94619C23.7145 9.5702 23.2063 9.35823 22.6759 9.35692C22.1454 9.35561 21.6362 9.56507 21.2602 9.93922L17.716 13.466C17.528 13.6531 17.2734 13.7578 17.0082 13.7572C16.7429 13.7565 16.4888 13.6505 16.3018 13.4625L12.775 9.9183Z" fill="#F26B6B"/>
</g>
<defs>
<clipPath id="clip0_262_703">
<rect width="24" height="24" fill="white" transform="translate(17.042 0.0292969) rotate(45.1412)"/>
</clipPath>
</defs>
</svg>
