<svg width="38" height="38" viewBox="0 0 38 38" fill="none" xmlns="http://www.w3.org/2000/svg">
<path d="M12.1603 2.28003C6.71296 2.28003 2.28027 6.71271 2.28027 12.16V25.84C2.28027 31.2873 6.71296 35.72 12.1603 35.72H25.8403C31.2876 35.72 35.7203 31.2873 35.7203 25.84V12.16C35.7203 6.71271 31.2876 2.28003 25.8403 2.28003H12.1603ZM12.1603 3.80003H25.8403C30.466 3.80003 34.2003 7.5343 34.2003 12.16V25.84C34.2003 30.4658 30.466 34.2 25.8403 34.2H12.1603C7.53455 34.2 3.80027 30.4658 3.80027 25.84V12.16C3.80027 7.5343 7.53455 3.80003 12.1603 3.80003ZM28.1203 8.36003C27.2808 8.36003 26.6003 9.04056 26.6003 9.88003C26.6003 10.7195 27.2808 11.4 28.1203 11.4C28.9597 11.4 29.6403 10.7195 29.6403 9.88003C29.6403 9.04056 28.9597 8.36003 28.1203 8.36003ZM19.0003 10.64C14.3922 10.64 10.6403 14.3919 10.6403 19C10.6403 23.6081 14.3922 27.36 19.0003 27.36C23.6084 27.36 27.3603 23.6081 27.3603 19C27.3603 14.3919 23.6084 10.64 19.0003 10.64ZM19.0003 12.16C22.7869 12.16 25.8403 15.2134 25.8403 19C25.8403 22.7867 22.7869 25.84 19.0003 25.84C15.2136 25.84 12.1603 22.7867 12.1603 19C12.1603 15.2134 15.2136 12.16 19.0003 12.16Z" fill="#F26B6B"/>
</svg>
